<svg width="139" height="133" viewBox="0 0 139 133" fill="none" xmlns="http://www.w3.org/2000/svg"><rect width="29" height="58" rx="3" transform="matrix(-1 0 0 1 119 40)" fill="#0F0F0F"/><rect width="29" height="40" rx="3" transform="matrix(-1 0 0 1 84 58)" fill="#0F0F0F"/><rect width="29.405" height="93.133" rx="3" transform="matrix(-1 0 0 1 49.405 5)" fill="#0F0F0F"/><rect x="11" y="102" width="118" height="7" rx="3.5" fill="#0F0F0F"/><path d="m20.984 124-6.264-5.64 6.12-5.544h2.232l-7.176 5.976.12-1.08L23.24 124zm-7.8 0v-11.184h1.68V124zm25.908 0 4.752-11.184h1.92L50.54 124h-1.728l-4.296-10.512h.48L40.82 124zm2.4-3.912.408-1.2h5.472l.6 1.2zM68.303 124v-11.184h1.392L69.863 124zm9.024 0h-.768l-7.584-10.056v-1.128h.984l7.32 9.672zm.912-11.184V124h-1.392l-.144-11.184zM97.504 124v-11.184h3.936q1.92 0 2.976.768 1.056.744 1.056 2.232 0 1.032-.552 1.848-.528.792-1.56 1.248-1.008.432-2.448.432H98.32v-1.176h2.856q1.296 0 2.016-.6.72-.624.72-1.56 0-.912-.672-1.392-.672-.504-1.944-.504h-2.232V124zm8.736.168q-.768 0-1.296-.288-.504-.288-.96-.864a19 19 0 0 1-.96-1.44l-1.56-2.52 1.32-.48 1.584 2.4q.528.768.888 1.224t.672.672q.336.216.792.216a2 2 0 0 0 .312-.024q.168-.024.312-.048l.192.96q-.36.096-.672.144a4 4 0 0 1-.624.048m18.709-.168v-11.184h1.704V124z" fill="#0F0F0F"/></svg>